<?xml version="1.0" encoding="UTF-8"?>
<svg xmlns="http://www.w3.org/2000/svg" xmlns:xlink="http://www.w3.org/1999/xlink" id="e4UaGp0Zfyv1" viewBox="0 0 300 264" shape-rendering="geometricPrecision" text-rendering="geometricPrecision">
   <g transform="matrix(.1 0 0-.1 0 264)">
      <path d="M1590,2628c-42-9-77-41-488-451-256-255-453-459-465-482-32-60-30-147,5-205c38-65,574-595,620-615c49-20,140-19,181,1c45,23,86,63,108,106c23,46,25,134,3,186-9,23-88,110-212,235l-197,197l250,250l249,249l211-208c160-159,219-211,250-221c56-19,694-21,746-2c78,27,139,118,140,205c1,65-13,103-54,145-66,70-77,72-385,79l-277,5-255,253c-258,255-270,265-355,278-16,3-50,1-75-5Z" fill="#0895cd" stroke-opacity="0" />
      <path d="M1605,1821c-106-27-175-113-175-218c1-87,26-123,243-341l202-202-255-255c-140-140-258-255-262-255s-100,92-213,204C975,922,930,961,892,974s-103,16-386,16h-341l-52-30C39,918,5,857,5,770s34-148,108-190l52-30h275h275L965,299c138-138,267-259,287-270c56-29,117-34,175-15c44,15,95,63,505,474c362,363,458,465,468,495c20,62,9,158-23,204-46,67-590,601-627,616-47,20-108,27-145,18Z" fill="#09487e" />
   </g>
</svg>